<svg xmlns="http://www.w3.org/2000/svg" width="240" height="240">
    <symbol id="youtube" viewBox="0 0 24 24">
        <path fill="none" d="M0 0h24v24H0z"/>
        <path class="youtube-icon" d="M21.35 7.51c-.18-.68-.71-1.24-1.39-1.45C18.73 6 12 6 12 6s-6.73 0-7.96.06c-.68.2-1.21.76-1.39 1.45C2.25 8.77 2 10.38 2 12s.25 3.23.65 4.49c.18.68.71 1.24 1.39 1.45C5.27 18 12 18 12 18s6.73 0 7.96-.06c.68-.2 1.21-.76 1.39-1.45.4-1.26.65-2.87.65-4.49s-.25-3.23-.65-4.49zM10 15V9l5.2 3-5.2 3z" fill="red"/>
    </symbol>
</svg>
